# xmcd
#
# Track frame offsets: 
#        150
#        13264
#        27086
#        39588
#        51879
#        64557
#        79725
#        91588
#        103891
#        112815
#        127078
#        140631
#        152263
#        161634
#        171429
#
# Disc length: 2430 seconds
#
# Revision: 0
# Processed by: cddbd v1.5.2PL0 Copyright (c) Steve Scherf et al.
# Submitted via: ExactAudioCopy v1.0b4
#
DISCID=bd097c0f
DTITLE=Little Walter - Confessin' The Blues (LP)
DYEAR=1977
DGENRE=Blues
TTITLE0=It Ain't Right
TTITLE1=Rocker
TTITLE2=I Got To Find My Baby
TTITLE3=Lights Out
TTITLE4=One More Chance With You
TTITLE5=Crazy Legs
TTITLE6=Temperature
TTITLE7=I Got To Go
TTITLE8=Crazy Mixed-Up World
TTITLE9=Quarter To Twelve
TTITLE10=Confessin' The Blues
TTITLE11=The Toddle
TTITLE12=Up The Line
TTITLE13=Rock Bottom
TTITLE14=Mean Old Frisco
EXTD=
EXTT0=
EXTT1=
EXTT2=
EXTT3=
EXTT4=
EXTT5=
EXTT6=
EXTT7=
EXTT8=
EXTT9=
EXTT10=
EXTT11=
EXTT12=
EXTT13=
EXTT14=
PLAYORDER=
